HIERARCHY
ROOT hip
{
  OFFSET 0 0 0
  CHANNELS 6 Xposition Yposition Zposition Zrotation Yrotation Xrotation
  JOINT abdomen
  {
    OFFSET 0 20.6881 -0.73152
    CHANNELS 3 Zrotation Xrotation Yrotation
    JOINT chest
    {
      OFFSET 0 11.7043 -0.48768
      CHANNELS 3 Zrotation Xrotation Yrotation
      JOINT neck
      {
        OFFSET 0 22.1894 -2.19456
        CHANNELS 3 Zrotation Xrotation Yrotation
        JOINT head
        {
          OFFSET -0.24384 7.07133 1.2192
          CHANNELS 3 Zrotation Xrotation Yrotation
          JOINT leftEye
          {
            OFFSET 4.14528 8.04674 8.04672
            CHANNELS 3 Zrotation Xrotation Yrotation
            End Site
            {
              OFFSET 1 0 0
            }
          }
          JOINT rightEye
          {
            OFFSET -3.6576 8.04674 8.04672
            CHANNELS 3 Zrotation Xrotation Yrotation
            End Site
            {
              OFFSET 1 0 0
            }
          }
        }
      }
      JOINT rCollar
      {
        OFFSET -2.68224 19.2634 -4.8768
        CHANNELS 3 Zrotation Xrotation Yrotation
        JOINT rShldr
        {
          OFFSET -8.77824 -1.95073 1.46304
          CHANNELS 3 Zrotation Xrotation Yrotation
          JOINT rForeArm
          {
            OFFSET -28.1742 -1.7115 0.48768
            CHANNELS 3 Zrotation Xrotation Yrotation
            JOINT rHand
            {
              OFFSET -22.5879 0.773209 7.07136
              CHANNELS 3 Zrotation Xrotation Yrotation
              JOINT rThumb1
              {
                OFFSET -1.2192 -0.487915 3.41376
                CHANNELS 3 Zrotation Xrotation Yrotation
                JOINT rThumb2
                {
                  OFFSET -3.37035 -0.52449 3.41376
                  CHANNELS 3 Zrotation Xrotation Yrotation
                  End Site
                  {
                    OFFSET -1.78271 -1.18214 1.43049
                  }
                }
              }
              JOINT rIndex1
              {
                OFFSET -7.75947 0.938293 5.60832
                CHANNELS 3 Zrotation Xrotation Yrotation
                JOINT rIndex2
                {
                  OFFSET -2.54057 -0.884171 1.56538
                  CHANNELS 3 Zrotation Xrotation Yrotation
                  End Site
                  {
                    OFFSET -1.62519 -0.234802 1.16502
                  }
                }
              }
              JOINT rMid1
              {
                OFFSET -8.24714 1.18213 3.41376
                CHANNELS 3 Zrotation Xrotation Yrotation
                JOINT rMid2
                {
                  OFFSET -3.10165 -0.590103 1.0647
                  CHANNELS 3 Zrotation Xrotation Yrotation
                  End Site
                  {
                    OFFSET -2.48547 -0.328903 0.83742
                  }
                }
              }
              JOINT rRing1
              {
                OFFSET -8.82822 0.546677 1.51678
                CHANNELS 3 Zrotation Xrotation Yrotation
                JOINT rRing2
                {
                  OFFSET -2.60934 -0.819778 -0.0198488
                  CHANNELS 3 Zrotation Xrotation Yrotation
                  End Site
                  {
                    OFFSET -2.33842 -0.294052 0.168128
                  }
                }
              }
              JOINT rPinky1
              {
                OFFSET -8.27202 -0.0477905 -0.4584
                CHANNELS 3 Zrotation Xrotation Yrotation
                JOINT rPinky2
                {
                  OFFSET -1.82734 -0.647385 -0.700984
                  CHANNELS 3 Zrotation Xrotation Yrotation
                  End Site
                  {
                    OFFSET -1.69225 -0.51767 -0.607171
                  }
                }
              }
            }
          }
        }
      }
      JOINT lCollar
      {
        OFFSET 2.68224 19.2634 -4.8768
        CHANNELS 3 Zrotation Xrotation Yrotation
        JOINT lShldr
        {
          OFFSET 8.77824 -1.95073 1.46304
          CHANNELS 3 Zrotation Xrotation Yrotation
          JOINT lForeArm
          {
            OFFSET 28.1742 -1.7115 0.48768
            CHANNELS 3 Zrotation Xrotation Yrotation
            JOINT lHand
            {
              OFFSET 22.5879 0.773209 7.07136
              CHANNELS 3 Zrotation Xrotation Yrotation
              JOINT lThumb1
              {
                OFFSET 1.2192 -0.487915 3.41376
                CHANNELS 3 Zrotation Xrotation Yrotation
                JOINT lThumb2
                {
                  OFFSET 3.37035 -0.52449 3.41376
                  CHANNELS 3 Zrotation Xrotation Yrotation
                  End Site
                  {
                    OFFSET 1.78271 -1.18214 1.43049
                  }
                }
              }
              JOINT lIndex1
              {
                OFFSET 7.75947 0.938293 5.60832
                CHANNELS 3 Zrotation Xrotation Yrotation
                JOINT lIndex2
                {
                  OFFSET 2.54057 -0.884171 1.56538
                  CHANNELS 3 Zrotation Xrotation Yrotation
                  End Site
                  {
                    OFFSET 1.62519 -0.234802 1.16502
                  }
                }
              }
              JOINT lMid1
              {
                OFFSET 8.24714 1.18213 3.41376
                CHANNELS 3 Zrotation Xrotation Yrotation
                JOINT lMid2
                {
                  OFFSET 3.10165 -0.590103 1.0647
                  CHANNELS 3 Zrotation Xrotation Yrotation
                  End Site
                  {
                    OFFSET 2.48547 -0.328903 0.83742
                  }
                }
              }
              JOINT lRing1
              {
                OFFSET 8.82822 0.546677 1.51678
                CHANNELS 3 Zrotation Xrotation Yrotation
                JOINT lRing2
                {
                  OFFSET 2.60934 -0.819778 -0.0198488
                  CHANNELS 3 Zrotation Xrotation Yrotation
                  End Site
                  {
                    OFFSET 2.33842 -0.294052 0.168128
                  }
                }
              }
              JOINT lPinky1
              {
                OFFSET 8.27202 -0.0477905 -0.4584
                CHANNELS 3 Zrotation Xrotation Yrotation
                JOINT lPinky2
                {
                  OFFSET 1.82734 -0.647385 -0.700984
                  CHANNELS 3 Zrotation Xrotation Yrotation
                  End Site
                  {
                    OFFSET 1.69225 -0.51767 -0.607171
                  }
                }
              }
            }
          }
        }
      }
    }
  }
  JOINT rButtock
  {
    OFFSET -8.77824 4.35084 1.2192
    CHANNELS 3 Zrotation Xrotation Yrotation
    JOINT rThigh
    {
      OFFSET 0 -1.70687 -2.19456
      CHANNELS 3 Zrotation Xrotation Yrotation
      JOINT rShin
      {
        OFFSET 0 -36.8199 0.73152
        CHANNELS 3 Zrotation Xrotation Yrotation
        JOINT rFoot
        {
          OFFSET 0.73152 -45.1104 -5.12064
          CHANNELS 3 Zrotation Xrotation Yrotation
          End Site
          {
            OFFSET -1.1221 -3.69964 12.103
          }
        }
      }
    }
  }
  JOINT lButtock
  {
    OFFSET 8.77824 4.35084 1.2192
    CHANNELS 3 Zrotation Xrotation Yrotation
    JOINT lThigh
    {
      OFFSET 0 -1.70687 -2.19456
      CHANNELS 3 Zrotation Xrotation Yrotation
      JOINT lShin
      {
        OFFSET 0 -36.8199 0.73152
        CHANNELS 3 Zrotation Xrotation Yrotation
        JOINT lFoot
        {
          OFFSET -0.73152 -45.1104 -5.12064
          CHANNELS 3 Zrotation Xrotation Yrotation
          End Site
          {
            OFFSET 1.1221 -3.69964 12.103
          }
        }
      }
    }
  }
}
MOTION
Frames:	4
Frame Time:	0.00833333
46.2566 85.843 50.8908 178.228 1.3287 -175.244 -4.32372 -2.13489 1.35868 1.20377 1.1208 0.469466 -8.13435 5.46067 -8.44869 23.9812 -16.4354 -13.7783 -0.0 0.0 0.0 -0.0 0.0 0.0 -1.07298e-14 -8.50227e-14 -5.19713e-15 63.7688 41.1131 25.9818 -25.6788 -46.8688 97.4216 -0.965868 -26.7496 -4.06191 2.21598e-10 3.73298e-10 1.78184e-10 3.78939e-10 6.29586e-10 3.15728e-10 2.21598e-10 3.73297e-10 1.78162e-10 7.73091 5.47488 0.417314 2.21596e-10 3.73297e-10 1.78186e-10 2.90554 0.965183 0.102902 2.21609e-10 3.73297e-10 1.78189e-10 10.2786 0.731801 0.0259123 2.21595e-10 3.733e-10 1.78198e-10 2.22167 -0.733487 -0.20892 -1.08258e-14 -8.50256e-14 -5.36563e-15 -51.9208 42.0594 -34.5151 24.0608 -49.3181 -103.092 0.887959 -25.7409 3.88536 -1.90058e-10 1.46328e-10 -3.56336e-10 -3.20086e-10 2.35056e-10 -6.23263e-10 -1.90062e-10 1.46333e-10 -3.5631e-10 -7.73091 5.47488 -0.417314 -1.90061e-10 1.46332e-10 -3.56336e-10 -2.90554 0.965183 -0.102902 -1.90067e-10 1.46332e-10 -3.5634e-10 -10.2786 0.731801 -0.0259123 -1.90051e-10 1.46331e-10 -3.56349e-10 -2.22167 -0.733487 0.20892 -2.03217e-16 0.0 -3.88251e-19 -6.1648 -4.69212 13.5699 -0.0175086 10.1647 0.120922 -1.73279 -1.94991 -19.3047 2.03217e-16 0.0 3.88251e-19 2.24755 -3.12783 -9.38905 0.00552133 5.8293 -0.120405 2.62318 -6.9234 12.3783
46.2911 85.8338 50.8994 178.354 1.3649 -175.191 -4.19885 -2.15607 1.3747 1.22127 1.11563 0.47179 -8.22237 5.51707 -8.38422 24.0586 -16.3465 -13.6437 -0.0 0.0 0.0 -0.0 0.0 0.0 1.64504e-15 -5.08875e-14 -2.45499e-14 63.7875 41.7829 26.2002 -25.7028 -46.826 97.3279 -0.949439 -26.5375 -4.02466 2.68562e-10 3.88572e-10 3.30307e-10 4.57726e-10 6.50547e-10 5.78315e-10 2.68562e-10 3.8857e-10 3.30291e-10 7.73091 5.47488 0.417314 2.68561e-10 3.88572e-10 3.3031e-10 2.90554 0.965183 0.102902 2.68575e-10 3.88572e-10 3.30314e-10 10.2786 0.731801 0.0259123 2.68559e-10 3.88574e-10 3.30323e-10 2.22167 -0.733487 -0.20892 1.53564e-15 -5.08906e-14 -2.47487e-14 -51.8417 42.8681 -34.822 24.0752 -49.2996 -103.046 0.864044 -25.4192 3.82972 -1.17135e-10 -6.0033e-12 -4.17655e-10 -1.93136e-10 -2.8978e-11 -7.26832e-10 -1.17137e-10 -5.99932e-12 -4.17626e-10 -7.73091 5.47488 -0.417314 -1.17139e-10 -5.99674e-12 -4.17655e-10 -2.90554 0.965183 -0.102902 -1.17145e-10 -5.99694e-12 -4.17659e-10 -10.2786 0.731801 -0.0259123 -1.1713e-10 -5.99972e-12 -4.17667e-10 -2.22167 -0.733487 0.20892 -2.03217e-16 0.0 -3.88251e-19 -6.08565 -4.6764 13.6303 -0.017354 10.1399 0.1209 -1.75305 -2.01116 -19.2958 2.03217e-16 0.0 3.88251e-19 2.32951 -3.12745 -9.27308 0.00582702 5.89397 -0.121421 2.6202 -6.95655 12.3282
46.3226 85.8171 50.8995 178.446 1.4251 -175.16 -4.14209 -2.18804 1.46421 1.24376 1.16932 0.49505 -8.17376 5.52036 -8.33936 23.936 -16.3448 -13.5601 -0.0 0.0 0.0 -0.0 0.0 0.0 6.7831e-15 -1.38948e-14 -3.7912e-14 63.7545 42.4241 26.5348 -25.6685 -46.8852 97.461 -0.96021 -26.6738 -4.04869 2.13328e-10 3.06372e-10 2.92302e-10 3.63419e-10 5.13083e-10 5.10353e-10 2.13328e-10 3.06368e-10 2.92292e-10 7.73091 5.47488 0.417314 2.13328e-10 3.0637e-10 2.92305e-10 2.90554 0.965183 0.102902 2.13341e-10 3.0637e-10 2.92309e-10 10.2786 0.731801 0.0259123 2.13325e-10 3.06373e-10 2.9232e-10 2.22167 -0.733487 -0.20892 6.6757e-15 -1.38981e-14 -3.81053e-14 -51.5941 43.8667 -35.3472 24.0917 -49.2766 -102.993 0.843847 -25.1446 3.78242 -4.81275e-11 -9.30947e-11 -3.76094e-10 -7.48076e-11 -1.76832e-10 -6.52959e-10 -4.81288e-11 -9.30908e-11 -3.76068e-10 -7.73091 5.47488 -0.417314 -4.8131e-11 -9.30878e-11 -3.76094e-10 -2.90554 0.965183 -0.102902 -4.81376e-11 -9.30878e-11 -3.76096e-10 -10.2786 0.731801 -0.0259123 -4.81244e-11 -9.30906e-11 -3.76104e-10 -2.22167 -0.733487 0.20892 -2.03217e-16 0.0 -3.88251e-19 -6.02297 -4.70472 13.6951 -0.0174407 10.1913 0.122321 -1.78605 -2.08744 -19.3082 2.03217e-16 0.0 3.88251e-19 2.37765 -3.12184 -9.15248 0.00599608 5.90538 -0.12074 2.60592 -6.89642 12.3272
46.3133 85.7914 50.8898 178.319 1.549 -175.174 -4.12421 -2.23106 1.60457 1.27133 1.25992 0.532697 -8.04818 5.49259 -8.3047 23.6992 -16.3929 -13.5028 -0.0 0.0 0.0 -0.0 0.0 0.0 8.16804e-15 2.6589e-14 -4.91619e-14 63.6476 43.1083 26.9866 -25.6004 -47.0008 97.7235 -0.987968 -27.0204 -4.11007 8.32731e-11 1.46103e-10 1.31821e-10 1.42102e-10 2.47474e-10 2.29143e-10 8.32729e-11 1.46096e-10 1.31818e-10 7.73091 5.47488 0.417314 8.32728e-11 1.46098e-10 1.31823e-10 2.90554 0.965183 0.102902 8.32831e-11 1.46098e-10 1.31828e-10 10.2786 0.731801 0.0259123 8.32673e-11 1.46102e-10 1.31842e-10 2.22167 -0.733487 -0.20892 8.07073e-15 2.65855e-14 -4.93297e-14 -51.2 45.0448 -36.0686 24.1121 -49.2472 -102.927 0.824121 -24.8727 3.73578 2.7896e-11 -1.50975e-10 -2.5976e-10 5.42569e-11 -2.71506e-10 -4.49752e-10 2.78933e-11 -1.50971e-10 -2.59739e-10 -7.73091 5.47488 -0.417314 2.78946e-11 -1.50969e-10 -2.5976e-10 -2.90554 0.965183 -0.102902 2.78851e-11 -1.50969e-10 -2.59758e-10 -10.2786 0.731801 -0.0259123 2.78961e-11 -1.50971e-10 -2.59765e-10 -2.22167 -0.733487 0.20892 -2.03217e-16 0.0 -3.88251e-19 -5.96743 -4.76399 13.7703 -0.0176887 10.2947 0.124772 -1.83028 -2.18024 -19.3357 2.03217e-16 0.0 3.88251e-19 2.40711 -3.11084 -9.02136 0.00609531 5.8798 -0.11885 2.58352 -6.76999 12.3614
